# AST/ASF file generated using VICON BodyLanguage
# -----------------------------------------------
:version 1.10
:name VICON
:units
  mass 1.0
  length 0.45
  angle deg
:documentation
   .ast/.asf automatically generated from VICON data using
   VICON BodyBuilder and BodyLanguage model FoxedUp or BRILLIANT.MOD
:root
   order TX TY TZ RX RY RZ
   axis XYZ
   position 0 0 0  
   orientation 0 0 0 
:bonedata
  begin
     id 1 
     name lhipjoint
     direction 0.566809 -0.746272 0.349008 
     length 2.40479 
     axis 0 0 0  XYZ
  end
  begin
     id 2 
     name lfemur
     direction 0.34202 -0.939693 0  
     length 7.1578  
     axis 0 0 20  XYZ
    dof rx ry rz
    limits (-160.0 20.0)
           (-70.0 70.0)
           (-60.0 70.0)
  end
  begin
     id 3 
     name ltibia
     direction 0.34202 -0.939693 0   
     length 7.49137   
     axis 0 0 20   XYZ
    dof rx
    limits (-10.0 170.0)
  end
  begin
     id 4 
     name lfoot
     direction 0.0665746 -0.182912 0.980873   
     length 2.36784   
     axis -90 7.62852e-016 20   XYZ
    dof rx rz
    limits (-45.0 90.0)
           (-70.0 20.0)
  end
  begin
     id 5 
     name ltoes
     direction 1.53601e-011 -4.22058e-011 1   
     length 1.18966   
     axis -90 7.62852e-016 20   XYZ
    dof rx
    limits (-90.0 20.0)
  end
  begin
     id 6 
     name rhipjoint
     direction -0.550236 -0.756381 0.353735   
     length 2.37265  
     axis 0 0 0  XYZ 
  end
  begin
     id 7 
     name rfemur
     direction -0.34202 -0.939693 0   
     length 7.43386   
     axis 0 0 -20   XYZ
    dof rx ry rz
    limits (-160.0 20.0)
           (-70.0 70.0)
           (-70.0 60.0)
  end
  begin
     id 8 
     name rtibia
     direction -0.34202 -0.939693 0   
     length 7.50908   
     axis 0 0 -20   XYZ
    dof rx
    limits (-10.0 170.0)
 end
 begin
     id 9 
     name rfoot
     direction -0.0683029 -0.187661 0.979856   
     length 2.41173  
     axis -90 -7.62852e-016 -20   XYZ
    dof rx rz
    limits (-45.0 90.0)
           (-20.0 70.0)
  end
  begin
     id 10 
     name rtoes
     direction -1.53528e-011 -4.21968e-011 1   
     length 1.21082   
     axis -90 -7.62852e-016 -20   XYZ
    dof rx
    limits (-90.0 20.0)
  end
  begin
     id 11 
     name lowerback
     direction 0.013823 0.995423 -0.0945635   
     length 2.04495   
     axis 0 0 0   XYZ
    dof rx ry rz
    limits (-20.0 45.0)
           (-30.0 30.0)
           (-30.0 30.0)
  end
  begin
     id 12 
     name upperback
     direction 0.0276657 0.9994 -0.020853   
     length 2.05008   
     axis 0 0 0   XYZ
    dof rx ry rz
    limits (-20.0 45.0)
           (-30.0 30.0)
           (-30.0 30.0)
  end
  begin
     id 13 
     name thorax
     direction 0.019782 0.999531 0.0233827   
     length 2.06488   
     axis 0 0 0   XYZ
    dof rx ry rz
    limits (-20.0 45.0)
           (-30.0 30.0)
           (-30.0 30.0)
  end
  begin
     id 14 
     name lowerneck
     direction -0.0308541 0.994709 0.0979874   
     length 1.75553   
     axis 0 0 0   XYZ
    dof rx ry rz
    limits (-20.0 45.0)
           (-30.0 30.0)
           (-30.0 30.0)
  end
  begin
     id 15 
     name upperneck
     direction 0.0588398 0.995804 -0.0700903   
     length 1.76878   
     axis 0 0 0   XYZ
    dof rx ry rz
    limits (-20.0 45.0)
           (-30.0 30.0)
           (-30.0 30.0)
  end
  begin
     id 16
     name head
     direction 0.0209966 0.999159 -0.0352225  
     length 1.77193  
     axis 0 0 0   XYZ
    dof rx ry rz
    limits (-20.0 45.0)
           (-30.0 30.0)
           (-30.0 30.0)
  end
  begin
     id 17 
     name lclavicle
     direction 0.938182 0.335073 -0.0868338  
     length 3.58396  
     axis 0 0 0   XYZ
    dof ry rz
    limits (-20.0 10.0)
           (0.0 20.0)
  end
  begin
     id 18 
     name lhumerus
     direction 1 -4.48971e-011 -1.26313e-017   
     length 4.983   
     axis 180 -30 -90   XYZ
    dof rx ry rz
    limits (-60.0 90.0)
           (-90.0 90.0)
           (-90.0 90.0)
  end
  begin
     id 19
     name lradius
     direction 1 -4.48948e-011 -5.89033e-027   
     length 3.48356   
     axis 180 -30 -90   XYZ
    dof rx
    limits (-10.0 170.0)
  end
  begin
     id 20
     name lwrist
     direction 1 -4.48977e-011 -1.48983e-026   
     length 1.74178   
     axis 9.0955e-015 90 90   XYZ
    dof ry
    limits (-180.0 0.0)
 end
  begin
     id 21 
     name lhand
     direction 1 -4.49046e-011 -2.98066e-026   
     length 0.715259   
     axis 1.90115e-014 90 90   XYZ
    dof rx rz
    limits (-90.0 90.0)
           (-45.0 45.0)
  end
  begin
     id 22 
     name lfingers
     direction 1 -4.48907e-011 -5.95731e-026   
     length 0.576661   
     axis 3.80223e-014 90 90   XYZ
    dof rx
    limits (0.0 90.0)
  end
  begin
     id 23
     name lthumb
     direction 0.707107 -6.34963e-011 0.707107   
     length 0.827973   
     axis -90 45 -3.84942e-014   XYZ
    dof rx rz
    limits (-45.0 45.0)
           (-45.0 45.0)
  end
  begin
     id 24 
     name rclavicle
     direction -0.909637 0.398485 -0.11735   
     length 3.44819  
     axis 0 0 0   XYZ 
    dof ry rz
    limits (-10.0 20.0)
           (-20.0 0.0)
  end
  begin
     id 25 
     name rhumerus
     direction -1 -4.48978e-011 -1.09333e-027  
     length 5.2419   
     axis 180 30 90   XYZ
    dof rx ry rz
    limits (-90.0 60.0)
           (-90.0 90.0)
           (-90.0 90.0)
  end
  begin
     id 26 
     name rradius
     direction -1 -4.48953e-011 -7.61841e-027   
     length 3.44417   
     axis 180 30 90   XYZ
    dof rx
    limits (-10.0 170.0)
  end
  begin
     id 27 
     name rwrist
     direction -1 -4.48977e-011 -1.48983e-026   
     length 1.72209   
     axis 9.0955e-015 -90 -90   XYZ
    dof ry
    limits (-180.0 0.0)
  end
  begin
     id 28
     name rhand
     direction -1 -4.49027e-011 -2.98038e-026   
     length 0.622529   
     axis 1.90115e-014 -90 -90   XYZ
    dof rx rz
    limits (-90.0 90.0)
           (-45.0 45.0)
  end
  begin
     id 29
     name rfingers
     direction -1 -4.48838e-011 -5.95531e-026   
     length 0.501899   
     axis 3.80223e-014 -90 -90   XYZ
    dof rx
    limits (0.0 90.0)
  end
  begin
     id 30
     name rthumb
     direction -0.707107 -6.34937e-011 0.707107   
     length 0.720629   
     axis -90 -45 3.84942e-014   XYZ
    dof rx rz
    limits (-45.0 45.0)
           (-45.0 45.0)
  end
:hierarchy
  begin
    root lhipjoint rhipjoint lowerback
    lhipjoint lfemur
    lfemur ltibia
    ltibia lfoot
    lfoot ltoes
    rhipjoint rfemur
    rfemur rtibia
    rtibia rfoot
    rfoot rtoes
    lowerback upperback
    upperback thorax
    thorax lowerneck lclavicle rclavicle
    lowerneck upperneck
    upperneck head
    lclavicle lhumerus
    lhumerus lradius
    lradius lwrist
    lwrist lhand lthumb
    lhand lfingers
    rclavicle rhumerus
    rhumerus rradius
    rradius rwrist
    rwrist rhand rthumb
    rhand rfingers
  end

#!OML:ASF H:\Terrain\Patient Classification 1\PLAYGROUND\JustinFriday\JustinFriday.ASF
:FULLY-SPECIFIED
:DEGREES
327
root -23.7339 17.0476 4.43922 181.735 -2.21374 -168.912
lowerback 11.2502 1.01581 7.6003
upperback 3.02259 1.79411 3.70041
thorax -2.99282 0.622085 -0.636542
lowerneck 0.72275 -7.19642 -10.9783
upperneck 19.9433 -13.0255 8.45869
head 7.21899 -7.13391 3.60514
rclavicle 6.00081e-015 1.70955e-014
rhumerus -9.99092 -36.9075 -48.1734
rradius 114.066
rwrist -5.26471
rhand -24.9069 -6.11561
rfingers 7.12502
rthumb 1.60152 -36.0893
lclavicle 6.00081e-015 1.70955e-014
lhumerus -39.0128 12.8067 73.6237
lradius 34.8949
lwrist 3.0728
lhand -16.9994 -6.55982
lfingers 7.12502
lthumb 9.23596 23.2179
rfemur 9.59165 15.653 33.9152
rtibia 21.5481
rfoot -16.2681 12.6022
rtoes 25.9131
lfemur -34.4156 -3.44493 3.20373
ltibia 26.4818
lfoot -14.6599 -1.75491
ltoes 0.190181
328
root -23.8115 17.0464 4.35095 181.988 -2.73889 -169.093
lowerback 11.2364 0.698721 7.31497
upperback 2.9887 1.35217 3.72357
thorax -3.05932 0.406149 -0.396061
lowerneck -0.138469 -7.52274 -10.5367
upperneck 20.3746 -13.3784 8.00765
head 7.4909 -7.26832 3.30513
rclavicle 3.64024e-015 -1.85367e-014
rhumerus -9.88943 -37.6246 -47.8404
rradius 114.329
rwrist -6.69251
rhand -22.6539 -6.90549
rfingers 7.12502
rthumb 3.77733 -36.8518
lclavicle 3.64024e-015 -1.85367e-014
lhumerus -38.4802 12.7436 73.4789
lradius 35.4336
lwrist 4.14188
lhand -18.4095 -5.22247
lfingers 7.12502
lthumb 7.87515 24.6109
rfemur 9.42767 15.2686 33.5557
rtibia 21.9094
rfoot -16.3955 12.1149
rtoes 24.0755
lfemur -35.0036 -3.27418 2.32477
ltibia 26.8946
lfoot -12.9681 -3.5057
ltoes 2.31439
329
root -23.8985 17.0382 4.23195 182.056 -2.34561 -169.042
lowerback 11.0672 0.570734 7.19421
upperback 3.12424 1.12362 3.82545
thorax -2.84152 0.293007 -0.190707
lowerneck -1.79624 -7.56939 -10.5461
upperneck 21.7331 -13.3866 7.50491
head 8.20634 -7.27432 3.03442
rclavicle 2.73329e-016 1.78161e-014
rhumerus -9.48801 -37.7659 -47.9019
rradius 113.807
rwrist -6.23788
rhand -23.2881 -6.19398
rfingers 7.12502
rthumb 3.16487 -36.1502
lclavicle 2.73329e-016 1.78161e-014
lhumerus -38.3724 13.3806 72.838
lradius 36.0057
lwrist 4.74106
lhand -18.1005 -5.62644
lfingers 7.12502
lthumb 8.17338 24.1955
rfemur 9.5929 15.5389 33.4452
rtibia 22.3091
rfoot -16.1556 11.9513
rtoes 22.911
lfemur -34.8443 -3.30089 2.00409
ltibia 27.2527
lfoot -11.8597 -4.21201
ltoes 4.65533
330
root -23.9967 17.031 4.09356 182.216 -1.40226 -168.942
lowerback 10.8372 0.646897 7.25705
upperback 3.14775 1.1967 3.89622
thorax -2.6854 0.328753 -0.159268
lowerneck 0.129719 -7.45316 -10.8528
upperneck 19.6041 -13.2059 8.32804
head 7.21587 -7.17598 3.49961
rclavicle 2.73205e-014 8.03587e-014
rhumerus -9.52186 -38.0221 -47.5974
rradius 113.697
rwrist -6.79002
rhand -23.0939 -6.03122
rfingers 7.12502
rthumb 3.35244 -35.9846
lclavicle 2.73205e-014 8.03587e-014
lhumerus -38.4699 13.7917 72.1019
lradius 36.3341
lwrist 5.19926
lhand -17.8023 -6.67676
lfingers 7.12502
lthumb 8.4611 23.1337
rfemur 9.73324 15.7999 33.0707
rtibia 22.5361
rfoot -15.0962 12.9083
rtoes 23.8158
lfemur -34.5809 -3.11079 1.82804
ltibia 27.6696
lfoot -10.9351 -4.75895
ltoes 6.79469
331
root -24.0916 17.041 3.94882 182.546 -0.651601 -169.12
lowerback 10.6139 0.694856 6.98123
upperback 2.99004 1.24012 3.94281
thorax -2.73554 0.354909 0.0381505
lowerneck 2.03305 -7.37568 -11.5631
upperneck 17.7553 -13.2379 9.56001
head 6.41972 -7.20595 4.12559
rclavicle -1.20513e-015 -6.85807e-015
rhumerus -9.8177 -38.179 -47.0179
rradius 113.735
rwrist -7.92049
rhand -21.8751 -6.35638
rfingers 7.12502
rthumb 4.5294 -36.288
lclavicle -1.20513e-015 -6.85807e-015
lhumerus -38.4103 14.3083 71.4574
lradius 36.2302
lwrist 5.20974
lhand -18.2519 -6.60089
lfingers 7.12502
lthumb 8.02725 23.2267
rfemur 9.62349 16.0001 32.3829
rtibia 22.8765
rfoot -14.1978 13.5815
rtoes 23.3493
lfemur -34.5729 -2.74153 1.24494
ltibia 28.0748
lfoot -9.56828 -5.23206
ltoes 8.1188
332
root -24.2235 17.0542 3.72928 181.343 1.70314 -169.61
lowerback 11.0211 0.279274 6.38876
upperback 3.79341 1.7911 3.80997
thorax -2.16396 1.16083 0.137393
lowerneck -0.30405 -7.49487 -11.3605
upperneck 19.6624 -13.2759 8.61819
head 7.37184 -7.21375 3.64191
rclavicle -8.07563e-015 4.96962e-016
rhumerus -9.31628 -38.2236 -47.0743
rradius 113.701
rwrist -9.10942
rhand -20.3732 -6.80026
rfingers 7.12502
rthumb 5.97953 -36.6959
lclavicle -8.07563e-015 4.96962e-016
lhumerus -37.7958 15.8954 70.8264
lradius 35.8987
lwrist 4.88353
lhand -18.3733 -6.01369
lfingers 7.12502
lthumb 7.91007 23.8183
rfemur 11.6127 17.3102 31.7366
rtibia 23.2869
rfoot -13.8564 14.2305
rtoes 21.8779
lfemur -31.9216 -2.92859 0.478599
ltibia 28.4971
lfoot -9.30762 -3.88048
ltoes 8.23244
333
root -24.3014 17.0589 3.62343 181.572 0.899143 -169.77
lowerback 11.1937 -0.348153 6.18444
upperback 3.71319 0.950719 3.80113
thorax -2.3804 0.734051 0.344883
lowerneck -1.88697 -9.60714 -10.9442
upperneck 20.872 -12.4432 7.50233
head 7.92967 -5.74949 3.31748
rclavicle -1.54058e-014 -3.46382e-014
rhumerus -9.04972 -38.3869 -47.2626
rradius 113.634
rwrist -10.072
rhand -19.5833 -6.95595
rfingers 7.12502
rthumb 6.74204 -36.8286
lclavicle -1.54058e-014 -3.46382e-014
lhumerus -37.3471 17.0129 70.0446
lradius 35.9773
lwrist 5.13728
lhand -18.5061 -5.4499
lfingers 7.12502
lthumb 7.78187 24.3869
rfemur 11.3504 17.0781 31.5415
rtibia 23.8485
rfoot -13.125 13.6577
rtoes 20.7765
lfemur -32.566 -2.80702 -0.280381
ltibia 28.8684
lfoot -7.62767 -4.4119
ltoes 7.91803
334
root -24.3818 17.0607 3.48514 181.611 1.12704 -170.16
lowerback 11.5707 -0.454295 5.82279
upperback 3.48019 0.75568 3.52105
thorax -2.83684 0.602157 0.277049
lowerneck -2.31326 -9.78356 -10.308
upperneck 21.0912 -12.7047 7.33662
head 8.04758 -5.82819 3.11562
rclavicle 5.55083e-015 6.88292e-015
rhumerus -9.90294 -38.7151 -46.8082
rradius 113.504
rwrist -10.6615
rhand -19.0028 -7.03006
rfingers 7.12502
rthumb 7.30248 -36.884
lclavicle 5.55083e-015 6.88292e-015
lhumerus -37.4733 16.5853 69.2897
lradius 36.3832
lwrist 6.00416
lhand -19.3082 -4.845
lfingers 7.12502
lthumb 7.00761 25.019
rfemur 11.2959 17.4445 31.0256
rtibia 24.6556
rfoot -11.9422 13.685
rtoes 20.6615
lfemur -32.5004 -2.82116 -0.956211
ltibia 29.3353
lfoot -6.74052 -3.82714
ltoes 7.18999
335
root -24.4733 17.0692 3.33201 181.587 2.49879 -170.386
lowerback 12.0759 -0.0992407 5.33043
upperback 2.63187 1.15982 3.46416
thorax -3.99404 0.728187 0.429018
lowerneck -0.118504 -9.73145 -10.5041
upperneck 20.7727 -12.6851 7.52886
head 7.57905 -5.82804 3.32358
rclavicle -1.42799e-014 -6.52324e-014
rhumerus -11.9794 -38.194 -45.247
rradius 113.474
rwrist -11.3333
rhand -17.9951 -7.41462
rfingers 7.12502
rthumb 8.27505 -37.2325
lclavicle -1.42799e-014 -6.52324e-014
lhumerus -39.0498 15.5421 68.662
lradius 36.9376
lwrist 6.72699
lhand -19.5848 -2.58769
lfingers 7.12502
lthumb 6.74065 27.285
rfemur 11.0327 18.5596 30.5417
rtibia 26.125
rfoot -10.9344 13.8575
rtoes 19.6386
lfemur -31.774 -2.38636 -1.33911
ltibia 29.6679
lfoot -6.03634 -2.90904
ltoes 7.20384
